<?xml version="1.0" encoding="utf-8"?>
<!-- Generator: Adobe Illustrator 16.0.0, SVG Export Plug-In . SVG Version: 6.00 Build 0)  -->
<!DOCTYPE svg PUBLIC "-//W3C//DTD SVG 1.1//EN" "http://www.w3.org/Graphics/SVG/1.1/DTD/svg11.dtd">
<svg version="1.1" xmlns="http://www.w3.org/2000/svg" xmlns:xlink="http://www.w3.org/1999/xlink" x="0px" y="0px" width="115px"
	 height="83.857px" viewBox="0 0 115 83.857" enable-background="new 0 0 115 83.857" xml:space="preserve">
<g id="A2">
	<path fill="#2E2E2E" d="M63.007,48.161V18.124c-2.043-0.712-4.374-1.077-7.004-1.077c-5.121,0-9.193,1.533-12.214,4.599
		c-3.021,3.066-4.476,6.812-4.363,11.237l0.067,0.201h9.569c0-2.56,0.59-4.61,1.768-6.148c1.18-1.538,2.903-2.308,5.173-2.308
		c2.042,0,3.621,0.657,4.733,1.971c1.111,1.313,1.667,3.004,1.667,5.071c0,1.55-0.482,3.229-1.447,5.038
		c-0.967,1.808-2.596,4.026-4.886,6.654L41.195,59.31L26.953,17.755H16.879L0,66.81h9.939l3.335-10.579h17.217l3.336,10.579h6.374
		h3.565h19.241V59.23h-9.936l-0.067-0.169l8.726-9.502C62.171,49.082,62.595,48.617,63.007,48.161z M15.7,48.516l6.098-19.272H22
		l6.064,19.272H15.7z"/>
</g>
<g id="line">
	<rect x="62.847" fill="#2E2E2E" width="4.139" height="83.857"/>
</g>
<g id="ad">
	<g>
		<path fill="#F47829" d="M87.331,49.446c-0.22-0.507-0.407-1.042-0.565-1.605s-0.271-1.14-0.341-1.729
			c-0.616,1.084-1.431,1.983-2.439,2.696c-1.009,0.714-2.213,1.071-3.613,1.071c-2.334,0-4.133-0.601-5.395-1.802
			c-1.263-1.2-1.894-2.838-1.894-4.91c0-2.183,0.841-3.875,2.521-5.076c1.682-1.201,4.135-1.802,7.361-1.802h3.356v-1.771
			c0-1.07-0.282-1.901-0.845-2.491c-0.563-0.59-1.394-0.885-2.492-0.885c-0.975,0-1.726,0.236-2.254,0.71
			c-0.529,0.475-0.792,1.129-0.792,1.966l-5.808-0.021l-0.02-0.123c-0.097-1.88,0.72-3.503,2.45-4.869
			c1.729-1.366,4-2.049,6.814-2.049c2.663,0,4.824,0.676,6.486,2.027c1.66,1.353,2.491,3.278,2.491,5.776v9.204
			c0,1.043,0.078,2.024,0.237,2.944c0.156,0.919,0.406,1.832,0.751,2.738H87.331z M81.834,45.431c1.058,0,1.997-0.26,2.821-0.781
			c0.823-0.522,1.379-1.126,1.668-1.813v-3.15h-3.356c-1.277,0-2.244,0.32-2.903,0.957c-0.658,0.64-0.988,1.411-0.988,2.316
			c0,0.741,0.246,1.339,0.741,1.792C80.311,45.205,80.983,45.431,81.834,45.431z"/>
		<path fill="#F47829" d="M94.926,38.492c0-3.513,0.758-6.347,2.274-8.502c1.518-2.155,3.655-3.232,6.414-3.232
			c1.111,0,2.112,0.24,3.006,0.72c0.893,0.481,1.676,1.167,2.348,2.059v-12.21H115v32.12h-5.168l-0.494-2.718
			c-0.701,1.029-1.527,1.812-2.479,2.347c-0.955,0.535-2.05,0.804-3.285,0.804c-2.732,0-4.855-1.002-6.373-3.006
			c-1.517-2.004-2.274-4.653-2.274-7.948V38.492z M100.916,38.929c0,1.961,0.331,3.503,0.988,4.628
			c0.659,1.126,1.729,1.688,3.213,1.688c0.864,0,1.619-0.176,2.265-0.527c0.645-0.353,1.173-0.867,1.586-1.544v-9.549
			c-0.413-0.704-0.937-1.253-1.575-1.646c-0.638-0.394-1.384-0.591-2.234-0.591c-1.47,0-2.542,0.656-3.222,1.968
			s-1.021,3.024-1.021,5.137V38.929z"/>
	</g>
</g>
</svg>
