<?xml version="1.0" encoding="utf-8"?>
<!-- Generator: Adobe Illustrator 13.0.0, SVG Export Plug-In . SVG Version: 6.00 Build 14948)  -->
<!DOCTYPE svg PUBLIC "-//W3C//DTD SVG 1.1//EN" "http://www.w3.org/Graphics/SVG/1.1/DTD/svg11.dtd">
<svg version="1.1" id="Layer_1" xmlns="http://www.w3.org/2000/svg" xmlns:xlink="http://www.w3.org/1999/xlink" x="0px" y="0px"
	 width="305px" height="104px" viewBox="0 0 305 104" style="enable-background:new 0 0 305 104;" xml:space="preserve">
<g>
	<g>
		<defs>
			<rect id="SVGID_1_" x="0" y="0.6" width="305" height="103"/>
		</defs>
		<clipPath id="SVGID_2_">
			<use xlink:href="#SVGID_1_"  style="overflow:visible;"/>
		</clipPath>
		<path style="clip-path:url(#SVGID_2_);fill:#EE3838;" d="M132.6,27.3c0,3.3,1.7,5.3,4.5,6l-4.1,8.4h3.5l4-8.1h4.6v8.1h3L148,21.3
			h-8.9C135.6,21.2,132.6,23.1,132.6,27.3 M145.1,30.6h-5.9c-2,0-3.5-1-3.5-3.3c0-2.1,1.4-3.3,3.5-3.3h5.9V30.6z"/>
	</g>
	<g>
		<defs>
			<rect id="SVGID_3_" x="0" y="0.6" width="305" height="103"/>
		</defs>
		<clipPath id="SVGID_4_">
			<use xlink:href="#SVGID_3_"  style="overflow:visible;"/>
		</clipPath>
		<path style="clip-path:url(#SVGID_4_);fill:#121718;" d="M116.4,50c2.1,0,3.2,0.8,4.2,2.4l2.7-1.7c-1.4-2.5-3.6-3.8-7-3.8
			c-5.3,0-8.6,4.4-8.6,10.6s3.4,10.5,8.7,10.5c3.1,0,5.6-1.4,7-3.9l-2.5-1.7c-1,1.7-2.4,2.5-4.5,2.6c-3.6,0-5.5-2.9-5.5-7.4
			C110.9,52.9,112.8,50,116.4,50"/>
	</g>
	<g>
		<defs>
			<rect id="SVGID_5_" x="0" y="0.6" width="305" height="103"/>
		</defs>
		<clipPath id="SVGID_6_">
			<use xlink:href="#SVGID_5_"  style="overflow:visible;"/>
		</clipPath>
		<path style="clip-path:url(#SVGID_6_);fill:#121718;" d="M124.9,59.1c0,5.6,2.7,8.9,7.7,8.9c5.1,0,7.8-3.2,7.8-8.9V47.2h-3.1v12
			c0,3.7-1.5,5.7-4.7,5.7c-3.1,0-4.7-2.1-4.7-5.9V47.2h-3.1L124.9,59.1z"/>
	</g>
	<g>
		<defs>
			<rect id="SVGID_7_" x="0" y="0.6" width="305" height="103"/>
		</defs>
		<clipPath id="SVGID_8_">
			<use xlink:href="#SVGID_7_"  style="overflow:visible;"/>
		</clipPath>
		<polygon style="clip-path:url(#SVGID_8_);fill:#121718;" points="146,47.2 143,47.2 143.1,67.6 156.3,67.5 156.3,64.5 146.1,64.6 
					"/>
	</g>
	<g>
		<defs>
			<rect id="SVGID_9_" x="0" y="0.6" width="305" height="103"/>
		</defs>
		<clipPath id="SVGID_10_">
			<use xlink:href="#SVGID_9_"  style="overflow:visible;"/>
		</clipPath>
		<polygon style="clip-path:url(#SVGID_10_);fill:#121718;" points="161.9,67.5 161.9,50.1 167.8,50.1 167.8,47.1 152.9,47.1 
			152.9,50.1 158.8,50.1 158.9,67.5 		"/>
	</g>
	<g>
		<defs>
			<rect id="SVGID_11_" x="0" y="0.6" width="305" height="103"/>
		</defs>
		<clipPath id="SVGID_12_">
			<use xlink:href="#SVGID_11_"  style="overflow:visible;"/>
		</clipPath>
		<path style="clip-path:url(#SVGID_12_);fill:#121718;" d="M184.7,58.9V47h-3.1v12c0,3.7-1.5,5.7-4.7,5.7c-3.1,0-4.7-2.1-4.7-5.9
			V47h-3.1v11.8c0,5.6,2.7,8.9,7.7,8.9C182,67.8,184.7,64.6,184.7,58.9"/>
	</g>
	<g>
		<defs>
			<rect id="SVGID_13_" x="0" y="0.6" width="305" height="103"/>
		</defs>
		<clipPath id="SVGID_14_">
			<use xlink:href="#SVGID_13_"  style="overflow:visible;"/>
		</clipPath>
		<path style="clip-path:url(#SVGID_14_);fill:#121718;" d="M202.8,53c0-4.2-3-6.1-6.6-6.1h-8.9l0.1,20.4h3v-8.1h4.6l4.1,8.1h3.5
			l-4.2-8.3C201.1,58.3,202.8,56.3,202.8,53 M196.2,56.4h-5.9v-6.6h5.9c2.1,0,3.5,1.2,3.5,3.3C199.7,55.4,198.3,56.4,196.2,56.4"/>
	</g>
	<g>
		<defs>
			<rect id="SVGID_15_" x="0" y="0.6" width="305" height="103"/>
		</defs>
		<clipPath id="SVGID_16_">
			<use xlink:href="#SVGID_15_"  style="overflow:visible;"/>
		</clipPath>
		<path style="clip-path:url(#SVGID_16_);fill:#121718;" d="M208.2,62.5h8.2l1.7,4.8h3.3l-7.5-20.4h-3.2l-7.3,20.4h3.2L208.2,62.5z
			 M210.7,55.1c0.5-1.5,1.2-3.9,1.5-4.7c0.2,0.9,1.1,3.2,1.6,4.7l1.7,4.7h-6.3L210.7,55.1z"/>
	</g>
	<g>
		<defs>
			<rect id="SVGID_17_" x="0" y="0.6" width="305" height="103"/>
		</defs>
		<clipPath id="SVGID_18_">
			<use xlink:href="#SVGID_17_"  style="overflow:visible;"/>
		</clipPath>
		<polygon style="clip-path:url(#SVGID_18_);fill:#121718;" points="222.8,46.9 222.8,67.3 236.1,67.2 236.1,64.2 225.9,64.3 
			225.8,46.9 		"/>
	</g>
	<g>
		<defs>
			<rect id="SVGID_19_" x="0" y="0.6" width="305" height="103"/>
		</defs>
		<clipPath id="SVGID_20_">
			<use xlink:href="#SVGID_19_"  style="overflow:visible;"/>
		</clipPath>
		<path style="clip-path:url(#SVGID_20_);fill:#121718;" d="M123.9,80c0-4.2-2.8-6.4-6.6-6.4h-8.5l0.1,20.4h3v-7.6h5.3
			C121.1,86.4,123.9,84.1,123.9,80 M111.8,76.5h5.5c2.1,0,3.5,1.2,3.5,3.5c0,2.2-1.1,3.5-3.5,3.5h-5.5V76.5z"/>
	</g>
	<g>
		<defs>
			<rect id="SVGID_21_" x="0" y="0.6" width="305" height="103"/>
		</defs>
		<clipPath id="SVGID_22_">
			<use xlink:href="#SVGID_21_"  style="overflow:visible;"/>
		</clipPath>
		<path style="clip-path:url(#SVGID_22_);fill:#121718;" d="M125.2,94l1.7-4.9h8.2l1.7,4.8h3.3l-7.5-20.4h-3.2L122,94H125.2z
			 M129.4,81.7c0.5-1.5,1.2-3.9,1.5-4.7c0.2,0.9,1.1,3.2,1.6,4.7l1.7,4.7h-6.3L129.4,81.7z"/>
	</g>
	<g>
		<defs>
			<rect id="SVGID_23_" x="0" y="0.6" width="305" height="103"/>
		</defs>
		<clipPath id="SVGID_24_">
			<use xlink:href="#SVGID_23_"  style="overflow:visible;"/>
		</clipPath>
		<path style="clip-path:url(#SVGID_24_);fill:#121718;" d="M140.6,73.5v11.8c0,5.6,2.7,8.9,7.7,8.9c5.1,0,7.8-3.1,7.8-8.9V73.4H153
			v12c0,3.7-1.5,5.7-4.7,5.7c-3.1,0-4.7-2.1-4.7-5.9V73.4L140.6,73.5z"/>
	</g>
	<g>
		<defs>
			<rect id="SVGID_25_" x="0" y="0.6" width="305" height="103"/>
		</defs>
		<clipPath id="SVGID_26_">
			<use xlink:href="#SVGID_25_"  style="overflow:visible;"/>
		</clipPath>
		<polygon style="clip-path:url(#SVGID_26_);fill:#121718;" points="172,90.8 161.8,90.8 161.8,73.4 158.7,73.4 158.8,93.8 
			172,93.8 		"/>
	</g>
	<g>
		<defs>
			
				<rect id="SVGID_27_" x="-0.1" y="0.7" transform="matrix(-1 3.832482e-003 -3.832482e-003 -1 304.9601 103.7911)" width="305" height="103"/>
		</defs>
		<clipPath id="SVGID_28_">
			<use xlink:href="#SVGID_27_"  style="overflow:visible;"/>
		</clipPath>
		
			<rect x="173.7" y="73.4" transform="matrix(-1 3.780745e-003 -3.780745e-003 -1 350.8173 166.538)" style="clip-path:url(#SVGID_28_);fill:#121718;" width="3.1" height="20.4"/>
	</g>
	<g>
		<defs>
			<rect id="SVGID_29_" x="0" y="0.6" width="305" height="103"/>
		</defs>
		<clipPath id="SVGID_30_">
			<use xlink:href="#SVGID_29_"  style="overflow:visible;"/>
		</clipPath>
		<path style="clip-path:url(#SVGID_30_);fill:#121718;" d="M186.8,81.7c-3.5-1-4.5-1.7-4.5-3.2c0-1.4,1-2.5,3.4-2.6
			c2,0,3.5,0.6,4.8,1.9l2.1-2.2c-1.8-1.7-3.9-2.8-6.7-2.7c-3.8,0-6.7,2.2-6.7,5.7c0,3.6,2.1,4.7,6.4,6c3.4,1,4.6,1.8,4.6,3.4
			c0,2-1.4,3-4.2,3c-1.9,0-3.9-0.9-5.3-2.4l-2.2,2.1c1.7,2,4.3,3.3,7.3,3.3c5.2,0,7.5-2.5,7.5-6.2C193.3,84.2,190.8,82.9,186.8,81.7
			"/>
	</g>
	<g>
		<defs>
			<rect id="SVGID_31_" x="0" y="0.6" width="305" height="103"/>
		</defs>
		<clipPath id="SVGID_32_">
			<use xlink:href="#SVGID_31_"  style="overflow:visible;"/>
		</clipPath>
		<polygon style="clip-path:url(#SVGID_32_);fill:#121718;" points="208.3,73.2 193.3,73.3 193.3,76.3 199.3,76.3 199.3,93.7 
			202.4,93.7 202.3,76.3 208.3,76.2 		"/>
	</g>
	<g>
		<defs>
			<rect id="SVGID_33_" x="0" y="0.6" width="305" height="103"/>
		</defs>
		<clipPath id="SVGID_34_">
			<use xlink:href="#SVGID_33_"  style="overflow:visible;"/>
		</clipPath>
		<path style="clip-path:url(#SVGID_34_);fill:#121718;" d="M213.2,73.2l-7.3,20.5h3.2l1.7-4.8h8.2l1.7,4.8h3.3l-7.5-20.4
			L213.2,73.2z M211.7,86l1.6-4.7c0.5-1.5,1.2-3.9,1.5-4.7c0.2,0.9,1.1,3.2,1.6,4.7L218,86H211.7z"/>
	</g>
	<g>
		<defs>
			<rect id="SVGID_35_" x="0" y="0.6" width="305" height="103"/>
		</defs>
		<clipPath id="SVGID_36_">
			<use xlink:href="#SVGID_35_"  style="overflow:visible;"/>
		</clipPath>
		<path style="clip-path:url(#SVGID_36_);fill:#EE3838;" d="M91.6,31.3L91.6,31.3c-3.7-2.3-8.1-3.6-12.9-3.6
			c-13.4,0.1-24.2,11-24.2,24.4s11,24.2,24.4,24.2c4.7,0,9.1-1.4,12.8-3.7c2.4-1.5,4.6-3.5,6.4-5.8c0.3-0.3,0.5-0.7,0.7-1
			c2.7-3.9,4.3-8.7,4.3-13.8c0-5.1-1.6-9.9-4.4-13.8C96.8,35.4,94.4,33.1,91.6,31.3"/>
	</g>
	<g>
		<defs>
			<rect id="SVGID_37_" x="0" y="0.6" width="305" height="103"/>
		</defs>
		<clipPath id="SVGID_38_">
			<use xlink:href="#SVGID_37_"  style="overflow:visible;"/>
		</clipPath>
		<path style="clip-path:url(#SVGID_38_);fill:#0AEA3A;" d="M98.8,65.7c-0.2,0.3-0.5,0.7-0.7,1c-1.8,2.3-3.9,4.3-6.4,5.8
			c-6.6,10.8-18.3,18-31.7,18c-20.8,0.1-37.7-17.1-37.8-38.3c0-21.3,16.8-38.6,37.6-38.6c13.4-0.1,25.1,7,31.8,17.8l0,0
			c2.8,1.7,5.2,4,7.1,6.7c-6-21.7-25.5-37.6-48.6-37.5C22.3,0.7-0.1,23.8,0,52.3c0.1,28.4,22.7,51.4,50.5,51.3
			C73.6,103.5,93,87.5,98.8,65.7"/>
	</g>
	<g>
		<defs>
			<rect id="SVGID_39_" x="0" y="0.6" width="305" height="103"/>
		</defs>
		<clipPath id="SVGID_40_">
			<use xlink:href="#SVGID_39_"  style="overflow:visible;"/>
		</clipPath>
		<path style="clip-path:url(#SVGID_40_);fill:#121718;" d="M117.6,34.3c-0.4,1.2-0.9,3-1.1,3.8c-0.2-0.7-0.8-2.5-1.2-3.7l-4.3-13
			h-3.3l7.2,20.4h3.2l6.9-20.4h-3.3L117.6,34.3z"/>
	</g>
	<g>
		<defs>
			
				<rect id="SVGID_41_" x="0.1" y="0.5" transform="matrix(-1 3.512526e-003 -3.512526e-003 -1 305.3287 103.4926)" width="305" height="103"/>
		</defs>
		<clipPath id="SVGID_42_">
			<use xlink:href="#SVGID_41_"  style="overflow:visible;"/>
		</clipPath>
		
			<rect x="126.6" y="21.2" transform="matrix(-1 3.465558e-003 -3.465558e-003 -1 256.4093 62.356)" style="clip-path:url(#SVGID_42_);fill:#121718;" width="3.1" height="20.4"/>
	</g>
	<g>
		<defs>
			<rect id="SVGID_43_" x="0" y="0.6" width="305" height="103"/>
		</defs>
		<clipPath id="SVGID_44_">
			<use xlink:href="#SVGID_43_"  style="overflow:visible;"/>
		</clipPath>
		<path style="clip-path:url(#SVGID_44_);fill:#121718;" d="M158.1,21.1l-7.3,20.4h3.2l1.7-4.8h8.2l1.7,4.8h3.3l-7.5-20.4H158.1z
			 M156.6,34l1.6-4.7c0.5-1.5,1.2-3.9,1.5-4.7c0.2,0.9,1.1,3.2,1.6,4.7L163,34H156.6z"/>
	</g>
	<g>
		<defs>
			<rect id="SVGID_45_" x="0" y="0.6" width="305" height="103"/>
		</defs>
		<clipPath id="SVGID_46_">
			<use xlink:href="#SVGID_45_"  style="overflow:visible;"/>
		</clipPath>
		<path style="clip-path:url(#SVGID_46_);fill:#121718;" d="M175.8,21.1h-5.6l0.1,20.4h5.6c5.3,0,9.9-3,9.9-10.2
			C185.7,24,181.3,21,175.8,21.1 M175.9,38.5h-2.5L173.3,24h2.5c4.8,0,6.8,2.9,6.8,7.2C182.7,35.5,180.7,38.5,175.9,38.5"/>
	</g>
	<g>
		<defs>
			<rect id="SVGID_47_" x="0" y="0.6" width="305" height="103"/>
		</defs>
		<clipPath id="SVGID_48_">
			<use xlink:href="#SVGID_47_"  style="overflow:visible;"/>
		</clipPath>
		<path style="clip-path:url(#SVGID_48_);fill:#121718;" d="M195.8,21h-3.2l-7.3,20.4h3.2l1.7-4.8h8.2l1.7,4.8h3.3L195.8,21z
			 M191.1,33.8l1.6-4.7c0.5-1.5,1.2-3.8,1.5-4.7c0.2,0.9,1.1,3.2,1.6,4.7l1.7,4.7H191.1z"/>
	</g>
	<g>
		<defs>
			<rect id="SVGID_49_" x="0" y="0.6" width="305" height="103"/>
		</defs>
		<clipPath id="SVGID_50_">
			<use xlink:href="#SVGID_49_"  style="overflow:visible;"/>
		</clipPath>
		<polygon style="clip-path:url(#SVGID_50_);fill:#121718;" points="224.6,98.8 239.2,98.8 239.2,96 224.6,96 		"/>
	</g>
	<g>
		<defs>
			<rect id="SVGID_51_" x="0" y="0.6" width="305" height="103"/>
		</defs>
		<clipPath id="SVGID_52_">
			<use xlink:href="#SVGID_51_"  style="overflow:visible;"/>
		</clipPath>
		<path style="clip-path:url(#SVGID_52_);fill:#121718;" d="M240.2,79c0-4.3,4.1-6.1,7.8-6.1c4,0,8.4,1.6,8.4,6.4
			c0,5.1-3.9,6.1-8.1,6.1c-1.7,0-4.4,0.4-4.4,2.6v1.7h12.5v3.5h-16.3V88c0-4.6,4.2-6,8.2-6c1.5,0,4.3-0.3,4.3-2.6
			c0-2.2-2-3.2-4.6-3.2c-2,0-4,1-4.1,2.8H240.2z"/>
	</g>
	<g>
		<defs>
			<rect id="SVGID_53_" x="0" y="0.6" width="305" height="103"/>
		</defs>
		<clipPath id="SVGID_54_">
			<use xlink:href="#SVGID_53_"  style="overflow:visible;"/>
		</clipPath>
		<path style="clip-path:url(#SVGID_54_);fill:#121718;" d="M258.1,81.7c0-12,17.7-12,17.7,0v2.9c0,12-17.7,12-17.7,0V81.7z
			 M261.9,84.6c0,7.3,10.1,7.3,10.1,0v-2.9c0-7.2-10.1-7.3-10.1,0V84.6z"/>
	</g>
	<g>
		<defs>
			<rect id="SVGID_55_" x="0" y="0.6" width="305" height="103"/>
		</defs>
		<clipPath id="SVGID_56_">
			<use xlink:href="#SVGID_55_"  style="overflow:visible;"/>
		</clipPath>
		<polygon style="clip-path:url(#SVGID_56_);fill:#121718;" points="276.9,90.1 279.9,90.1 279.9,76.6 276.8,76.6 276.8,73.1 
			283.7,73.1 283.7,90.1 286.5,90.1 286.5,93.3 276.9,93.3 		"/>
	</g>
	<g>
		<defs>
			<rect id="SVGID_57_" x="0" y="0.6" width="305" height="103"/>
		</defs>
		<clipPath id="SVGID_58_">
			<use xlink:href="#SVGID_57_"  style="overflow:visible;"/>
		</clipPath>
		<path style="clip-path:url(#SVGID_58_);fill:#121718;" d="M302.6,73.1v12.6h2.4v3.7h-2.4v3.8h-3.7v-3.8h-10.8l-0.3-3.9l9.1-12.4
			H302.6z M298.9,85.8v-9.3l-6.8,9.3H298.9z"/>
	</g>
</g>
</svg>
