<svg xmlns="http://www.w3.org/2000/svg" width="115" height="83.857" viewBox="0 0 115 83.857"><path fill="#2E2E2E" d="M63.007 48.16V18.125c-2.043-.712-4.374-1.077-7.004-1.077-5.12 0-9.193 1.533-12.214 4.6-3.022 3.065-4.477 6.81-4.364 11.236l.067.2h9.57c0-2.56.59-4.61 1.767-6.147 1.18-1.538 2.903-2.308 5.173-2.308 2.042 0 3.62.657 4.733 1.97 1.11 1.314 1.667 3.005 1.667 5.072 0 1.55-.482 3.23-1.447 5.038-.967 1.808-2.596 4.026-4.886 6.654L41.195 59.31 26.953 17.755H16.88L0 66.81h9.94l3.334-10.58H30.49l3.337 10.58h29.18v-7.58h-9.935l-.066-.17 8.726-9.5c.44-.478.865-.943 1.277-1.4zm-47.307.356l6.098-19.272H22l6.064 19.272H15.7z"/><path fill="#2E2E2E" d="M62.847 0h4.14v83.857h-4.14z"/><g fill="#F47829"><path d="M87.33 49.446c-.22-.507-.406-1.042-.564-1.605s-.27-1.14-.34-1.728c-.617 1.084-1.432 1.983-2.44 2.696-1.01.714-2.213 1.07-3.613 1.07-2.334 0-4.133-.6-5.395-1.8-1.263-1.2-1.894-2.84-1.894-4.91 0-2.184.84-3.876 2.52-5.077 1.683-1.2 4.136-1.8 7.362-1.8h3.356v-1.772c0-1.07-.282-1.9-.845-2.49-.563-.59-1.394-.886-2.492-.886-.975 0-1.726.236-2.254.71-.528.475-.79 1.13-.79 1.966l-5.81-.02-.02-.124c-.096-1.88.72-3.503 2.45-4.87 1.73-1.365 4-2.048 6.815-2.048 2.663 0 4.824.676 6.486 2.027 1.66 1.353 2.492 3.278 2.492 5.776v9.203c0 1.043.078 2.024.237 2.944.155.92.405 1.832.75 2.738h-6.01zm-5.496-4.015c1.058 0 1.997-.26 2.82-.78.824-.522 1.38-1.126 1.67-1.813v-3.15h-3.357c-1.277 0-2.244.32-2.903.957-.658.64-.988 1.41-.988 2.316 0 .74.246 1.34.74 1.792.495.453 1.167.68 2.018.68zM94.926 38.492c0-3.513.758-6.347 2.274-8.502 1.518-2.155 3.655-3.232 6.414-3.232 1.11 0 2.112.24 3.006.72.893.48 1.676 1.167 2.348 2.06v-12.21H115v32.12h-5.168l-.494-2.72c-.7 1.03-1.527 1.813-2.48 2.348-.954.535-2.05.804-3.284.804-2.732 0-4.855-1.002-6.373-3.006-1.516-2.004-2.273-4.653-2.273-7.948v-.434zm5.99.437c0 1.96.33 3.502.988 4.627.66 1.126 1.73 1.688 3.213 1.688.864 0 1.62-.176 2.265-.527.645-.353 1.173-.867 1.586-1.544v-9.55c-.413-.703-.937-1.252-1.575-1.645-.638-.395-1.384-.592-2.234-.592-1.47 0-2.543.656-3.223 1.968s-1.02 3.024-1.02 5.137v.436z"/></g></svg>