<svg xmlns="http://www.w3.org/2000/svg" xmlns:xlink="http://www.w3.org/1999/xlink" width="305" height="104" viewBox="0 0 305 104"><defs><path id="a" d="M0 .6h305v103h-305z"/></defs><clipPath id="b"><use xlink:href="#a" overflow="visible"/></clipPath><path d="M132.6 27.3c0 3.3 1.7 5.3 4.5 6l-4.1 8.4h3.5l4-8.1h4.6v8.1h3l-.1-20.4h-8.9c-3.5-.1-6.5 1.8-6.5 6m12.5 3.3h-5.9c-2 0-3.5-1-3.5-3.3 0-2.1 1.4-3.3 3.5-3.3h5.9v6.6z" clip-path="url(#b)" fill="#EE3838"/><defs><path id="c" d="M0 .6h305v103h-305z"/></defs><clipPath id="d"><use xlink:href="#c" overflow="visible"/></clipPath><path d="M116.4 50c2.1 0 3.2.8 4.2 2.4l2.7-1.7c-1.4-2.5-3.6-3.8-7-3.8-5.3 0-8.6 4.4-8.6 10.6s3.4 10.5 8.7 10.5c3.1 0 5.6-1.4 7-3.9l-2.5-1.7c-1 1.7-2.4 2.5-4.5 2.6-3.6 0-5.5-2.9-5.5-7.4 0-4.7 1.9-7.6 5.5-7.6" clip-path="url(#d)" fill="#121718"/><defs><path id="e" d="M0 .6h305v103h-305z"/></defs><clipPath id="f"><use xlink:href="#e" overflow="visible"/></clipPath><path d="M124.9 59.1c0 5.6 2.7 8.9 7.7 8.9 5.1 0 7.8-3.2 7.8-8.9v-11.9h-3.1v12c0 3.7-1.5 5.7-4.7 5.7-3.1 0-4.7-2.1-4.7-5.9v-11.8h-3.1l.1 11.9z" clip-path="url(#f)" fill="#121718"/><defs><path id="g" d="M0 .6h305v103h-305z"/></defs><clipPath id="h"><use xlink:href="#g" overflow="visible"/></clipPath><path clip-path="url(#h)" fill="#121718" d="M146 47.2h-3l.1 20.4 13.2-.1v-3l-10.2.1z"/><defs><path id="i" d="M0 .6h305v103h-305z"/></defs><clipPath id="j"><use xlink:href="#i" overflow="visible"/></clipPath><path clip-path="url(#j)" fill="#121718" d="M161.9 67.5v-17.4h5.9v-3h-14.9v3h5.9l.1 17.4z"/><defs><path id="k" d="M0 .6h305v103h-305z"/></defs><clipPath id="l"><use xlink:href="#k" overflow="visible"/></clipPath><path d="M184.7 58.9v-11.9h-3.1v12c0 3.7-1.5 5.7-4.7 5.7-3.1 0-4.7-2.1-4.7-5.9v-11.8h-3.1v11.8c0 5.6 2.7 8.9 7.7 8.9 5.2.1 7.9-3.1 7.9-8.8" clip-path="url(#l)" fill="#121718"/><defs><path id="m" d="M0 .6h305v103h-305z"/></defs><clipPath id="n"><use xlink:href="#m" overflow="visible"/></clipPath><path d="M202.8 53c0-4.2-3-6.1-6.6-6.1h-8.9l.1 20.4h3v-8.1h4.6l4.1 8.1h3.5l-4.2-8.3c2.7-.7 4.4-2.7 4.4-6m-6.6 3.4h-5.9v-6.6h5.9c2.1 0 3.5 1.2 3.5 3.3 0 2.3-1.4 3.3-3.5 3.3" clip-path="url(#n)" fill="#121718"/><defs><path id="o" d="M0 .6h305v103h-305z"/></defs><clipPath id="p"><use xlink:href="#o" overflow="visible"/></clipPath><path d="M208.2 62.5h8.2l1.7 4.8h3.3l-7.5-20.4h-3.2l-7.3 20.4h3.2l1.6-4.8zm2.5-7.4c.5-1.5 1.2-3.9 1.5-4.7.2.9 1.1 3.2 1.6 4.7l1.7 4.7h-6.3l1.5-4.7z" clip-path="url(#p)" fill="#121718"/><defs><path id="q" d="M0 .6h305v103h-305z"/></defs><clipPath id="r"><use xlink:href="#q" overflow="visible"/></clipPath><path clip-path="url(#r)" fill="#121718" d="M222.8 46.9v20.4l13.3-.1v-3l-10.2.1-.1-17.4z"/><defs><path id="s" d="M0 .6h305v103h-305z"/></defs><clipPath id="t"><use xlink:href="#s" overflow="visible"/></clipPath><path d="M123.9 80c0-4.2-2.8-6.4-6.6-6.4h-8.5l.1 20.4h3v-7.6h5.3c3.9 0 6.7-2.3 6.7-6.4m-12.1-3.5h5.5c2.1 0 3.5 1.2 3.5 3.5 0 2.2-1.1 3.5-3.5 3.5h-5.5v-7z" clip-path="url(#t)" fill="#121718"/><defs><path id="u" d="M0 .6h305v103h-305z"/></defs><clipPath id="v"><use xlink:href="#u" overflow="visible"/></clipPath><path d="M125.2 94l1.7-4.9h8.2l1.7 4.8h3.3l-7.5-20.4h-3.2l-7.4 20.5h3.2zm4.2-12.3c.5-1.5 1.2-3.9 1.5-4.7.2.9 1.1 3.2 1.6 4.7l1.7 4.7h-6.3l1.5-4.7z" clip-path="url(#v)" fill="#121718"/><defs><path id="w" d="M0 .6h305v103h-305z"/></defs><clipPath id="x"><use xlink:href="#w" overflow="visible"/></clipPath><path d="M140.6 73.5v11.8c0 5.6 2.7 8.9 7.7 8.9 5.1 0 7.8-3.1 7.8-8.9v-11.9h-3.1v12c0 3.7-1.5 5.7-4.7 5.7-3.1 0-4.7-2.1-4.7-5.9v-11.8l-3 .1z" clip-path="url(#x)" fill="#121718"/><defs><path id="y" d="M0 .6h305v103h-305z"/></defs><clipPath id="z"><use xlink:href="#y" overflow="visible"/></clipPath><path clip-path="url(#z)" fill="#121718" d="M172 90.8h-10.2v-17.4h-3.1l.1 20.4h13.2z"/><defs><path id="A" d="M305.057 103.091l-305 1.169-.395-103 305-1.169z"/></defs><clipPath id="B"><use xlink:href="#A" overflow="visible"/></clipPath><path clip-path="url(#B)" fill="#121718" d="M176.84 93.795l-3.1.012-.077-20.4 3.1-.012z"/><defs><path id="C" d="M0 .6h305v103h-305z"/></defs><clipPath id="D"><use xlink:href="#C" overflow="visible"/></clipPath><path d="M186.8 81.7c-3.5-1-4.5-1.7-4.5-3.2 0-1.4 1-2.5 3.4-2.6 2 0 3.5.6 4.8 1.9l2.1-2.2c-1.8-1.7-3.9-2.8-6.7-2.7-3.8 0-6.7 2.2-6.7 5.7 0 3.6 2.1 4.7 6.4 6 3.4 1 4.6 1.8 4.6 3.4 0 2-1.4 3-4.2 3-1.9 0-3.9-.9-5.3-2.4l-2.2 2.1c1.7 2 4.3 3.3 7.3 3.3 5.2 0 7.5-2.5 7.5-6.2 0-3.6-2.5-4.9-6.5-6.1" clip-path="url(#D)" fill="#121718"/><defs><path id="E" d="M0 .6h305v103h-305z"/></defs><clipPath id="F"><use xlink:href="#E" overflow="visible"/></clipPath><path clip-path="url(#F)" fill="#121718" d="M208.3 73.2l-15 .1v3h6v17.4h3.1l-.1-17.4 6-.1z"/><defs><path id="G" d="M0 .6h305v103h-305z"/></defs><clipPath id="H"><use xlink:href="#G" overflow="visible"/></clipPath><path d="M213.2 73.2l-7.3 20.5h3.2l1.7-4.8h8.2l1.7 4.8h3.3l-7.5-20.4-3.3-.1zm-1.5 12.8l1.6-4.7c.5-1.5 1.2-3.9 1.5-4.7.2.9 1.1 3.2 1.6 4.7l1.6 4.7h-6.3z" clip-path="url(#H)" fill="#121718"/><defs><path id="I" d="M0 .6h305v103h-305z"/></defs><clipPath id="J"><use xlink:href="#I" overflow="visible"/></clipPath><path d="M91.6 31.3c-3.7-2.3-8.1-3.6-12.9-3.6-13.4.1-24.2 11-24.2 24.4s11 24.2 24.4 24.2c4.7 0 9.1-1.4 12.8-3.7 2.4-1.5 4.6-3.5 6.4-5.8.3-.3.5-.7.7-1 2.7-3.9 4.3-8.7 4.3-13.8 0-5.1-1.6-9.9-4.4-13.8-1.9-2.8-4.3-5.1-7.1-6.9" clip-path="url(#J)" fill="#EE3838"/><defs><path id="K" d="M0 .6h305v103h-305z"/></defs><clipPath id="L"><use xlink:href="#K" overflow="visible"/></clipPath><path d="M98.8 65.7c-.2.3-.5.7-.7 1-1.8 2.3-3.9 4.3-6.4 5.8-6.6 10.8-18.3 18-31.7 18-20.8.1-37.7-17.1-37.8-38.3 0-21.3 16.8-38.6 37.6-38.6 13.4-.1 25.1 7 31.8 17.8 2.8 1.7 5.2 4 7.1 6.7-6-21.7-25.5-37.6-48.6-37.5-27.8.1-50.2 23.2-50.1 51.7.1 28.4 22.7 51.4 50.5 51.3 23.1-.1 42.5-16.1 48.3-37.9" clip-path="url(#L)" fill="#0AEA3A"/><defs><path id="M" d="M0 .6h305v103h-305z"/></defs><clipPath id="N"><use xlink:href="#M" overflow="visible"/></clipPath><path d="M117.6 34.3c-.4 1.2-.9 3-1.1 3.8-.2-.7-.8-2.5-1.2-3.7l-4.3-13h-3.3l7.2 20.4h3.2l6.9-20.4h-3.3l-4.1 12.9z" clip-path="url(#N)" fill="#121718"/><defs><path id="O" d="M305.227 102.993l-305 1.071-.362-103 305-1.071z"/></defs><clipPath id="P"><use xlink:href="#O" overflow="visible"/></clipPath><path clip-path="url(#P)" fill="#121718" d="M129.736 41.595l-3.1.011-.071-20.4 3.1-.011z"/><defs><path id="Q" d="M0 .6h305v103h-305z"/></defs><clipPath id="R"><use xlink:href="#Q" overflow="visible"/></clipPath><path d="M158.1 21.1l-7.3 20.4h3.2l1.7-4.8h8.2l1.7 4.8h3.3l-7.5-20.4h-3.3zm-1.5 12.9l1.6-4.7c.5-1.5 1.2-3.9 1.5-4.7.2.9 1.1 3.2 1.6 4.7l1.7 4.7h-6.4z" clip-path="url(#R)" fill="#121718"/><defs><path id="S" d="M0 .6h305v103h-305z"/></defs><clipPath id="T"><use xlink:href="#S" overflow="visible"/></clipPath><path d="M175.8 21.1h-5.6l.1 20.4h5.6c5.3 0 9.9-3 9.9-10.2-.1-7.3-4.5-10.3-10-10.2m.1 17.4h-2.5l-.1-14.5h2.5c4.8 0 6.8 2.9 6.8 7.2.1 4.3-1.9 7.3-6.7 7.3" clip-path="url(#T)" fill="#121718"/><defs><path id="U" d="M0 .6h305v103h-305z"/></defs><clipPath id="V"><use xlink:href="#U" overflow="visible"/></clipPath><path d="M195.8 21h-3.2l-7.3 20.4h3.2l1.7-4.8h8.2l1.7 4.8h3.3l-7.6-20.4zm-4.7 12.8l1.6-4.7c.5-1.5 1.2-3.8 1.5-4.7.2.9 1.1 3.2 1.6 4.7l1.7 4.7h-6.4z" clip-path="url(#V)" fill="#121718"/><defs><path id="W" d="M0 .6h305v103h-305z"/></defs><clipPath id="X"><use xlink:href="#W" overflow="visible"/></clipPath><path clip-path="url(#X)" fill="#121718" d="M224.6 98.8h14.6v-2.8h-14.6z"/><defs><path id="Y" d="M0 .6h305v103h-305z"/></defs><clipPath id="Z"><use xlink:href="#Y" overflow="visible"/></clipPath><path d="M240.2 79c0-4.3 4.1-6.1 7.8-6.1 4 0 8.4 1.6 8.4 6.4 0 5.1-3.9 6.1-8.1 6.1-1.7 0-4.4.4-4.4 2.6v1.7h12.5v3.5h-16.3v-5.2c0-4.6 4.2-6 8.2-6 1.5 0 4.3-.3 4.3-2.6 0-2.2-2-3.2-4.6-3.2-2 0-4 1-4.1 2.8h-3.7z" clip-path="url(#Z)" fill="#121718"/><defs><path id="aa" d="M0 .6h305v103h-305z"/></defs><clipPath id="ab"><use xlink:href="#aa" overflow="visible"/></clipPath><path d="M258.1 81.7c0-12 17.7-12 17.7 0v2.9c0 12-17.7 12-17.7 0v-2.9zm3.8 2.9c0 7.3 10.1 7.3 10.1 0v-2.9c0-7.2-10.1-7.3-10.1 0v2.9z" clip-path="url(#ab)" fill="#121718"/><defs><path id="ac" d="M0 .6h305v103h-305z"/></defs><clipPath id="ad"><use xlink:href="#ac" overflow="visible"/></clipPath><path clip-path="url(#ad)" fill="#121718" d="M276.9 90.1h3v-13.5h-3.1v-3.5h6.9v17h2.8v3.2h-9.6z"/><defs><path id="ae" d="M0 .6h305v103h-305z"/></defs><clipPath id="af"><use xlink:href="#ae" overflow="visible"/></clipPath><path d="M302.6 73.1v12.6h2.4v3.7h-2.4v3.8h-3.7v-3.8h-10.8l-.3-3.9 9.1-12.4h5.7zm-3.7 12.7v-9.3l-6.8 9.3h6.8z" clip-path="url(#af)" fill="#121718"/></svg>